<?xml version="1.0" encoding="utf-8"?>
<!-- Generator: Adobe Illustrator 17.1.0, SVG Export Plug-In . SVG Version: 6.00 Build 0)  -->
<!DOCTYPE svg PUBLIC "-//W3C//DTD SVG 1.1//EN" "http://www.w3.org/Graphics/SVG/1.1/DTD/svg11.dtd">
<svg version="1.1" id="surfboards" xmlns="http://www.w3.org/2000/svg" xmlns:xlink="http://www.w3.org/1999/xlink" x="0px" y="0px"
	 viewBox="0 0 1010 1010" enable-background="new 0 0 1010 1010" xml:space="preserve">
<g>
	<path id="surfboards-label" fill="#FFB400" d="M1010,505c0,278.9111-226.0996,505-505,505S0,783.9111,0,505
		C0,226.0996,226.0996,0,505,0S1010,226.0996,1010,505z"/>
	<g id="surfboards-surfboards">
		<g>
			<path fill="#FFFFFF" d="M416.1865,747.0234c-10.4604,0-19.5293-2.707-26.9428-8.0439
				c-24.379-17.5244-26.6968-58.917-6.7183-119.6865c18.5156-56.3194,54.314-122.9239,100.792-187.5445
				C565.8779,316.9565,662.2646,236.79,717.7178,236.79c10.4668,0,19.5302,2.7017,26.9375,8.0386
				c24.373,17.5235,26.6963,58.9111,6.7295,119.6856C732.875,420.833,697.082,487.4375,650.6035,552.0596
				C568.0264,666.8457,471.6294,747.0234,416.1865,747.0234L416.1865,747.0234z M717.7178,256.9873
				c-41.6446,0-129.9102,64.0791-218.0054,186.5532c-45.3057,62.9937-80.1064,127.6529-97.9971,182.0659
				c-16.2304,49.3604-16.4834,85.6123-0.6792,96.9776c30.4659,21.8857,131.8887-41.5352,233.1729-182.3174
				c45.3056-62.9878,80.1006-127.6475,97.9853-182.0649c16.2315-49.355,16.4727-85.608,0.67-96.9786
				C728.8975,258.374,723.9424,256.9873,717.7178,256.9873L717.7178,256.9873z"/>
		</g>
		<g>
			<path fill="#FFFFFF" d="M331.2856,543.8838l-9.3374-16.374c-29.1294-51.0581-51.3598-101.3667-64.2861-145.4829l-1.2441-4.2525
				l44.5654-73.9692l85.9312-8.7124l3.3154,2.9424c34.3515,30.5214,70.3418,72.1171,104.0791,120.2939l10.8061,15.4307
				l-119.9375,2.9204L331.2856,543.8838L331.2856,543.8838z M278.3091,380.5747c11.2002,36.8179,29.0034,78.0405,51.9575,120.3535
				l42.3081-84.1499l94.1397-2.2905c-28.4615-38.8447-58.1221-72.5552-86.6163-98.4024l-67.0268,6.7999L278.3091,380.5747
				L278.3091,380.5747z"/>
		</g>
		<g>
			<path fill="#FFFFFF" d="M393.5396,628.4004c-3.1504,0-6.1534-1.4795-8.0826-4.044
				c-14.2685-19.0361-28.0991-39.0908-41.1074-59.6396c-42.6099-67.2456-74.4302-135.8394-89.6084-193.1397
				c-16.3843-61.8432-11.6279-103.0214,13.7427-119.0825c6.8496-4.3403,14.9101-6.5425,23.9516-6.5425
				c50.8121,0,134.9737,73.6617,209.4297,183.3033c2.4058,3.54,2.313,8.2192-0.2295,11.666l-1.9013,2.5918
				c-44.0073,61.1855-78.3198,124.4028-96.6382,178.0483c-1.2056,3.541-4.2798,6.127-7.9785,6.7071
				C394.5918,628.3564,394.0654,628.4004,393.5396,628.4004L393.5396,628.4004z M292.4355,266.1499
				c-5.2275,0-9.5239,1.1177-13.1406,3.4082c-16.455,10.4165-18.3344,46.6201-5.0298,96.8462
				c14.6631,55.3608,45.6177,121.9482,87.1475,187.5068c9.3262,14.7178,19.0854,29.1953,29.1245,43.2012
				c19.6055-50.3799,51.2778-107.2036,90.6211-162.3496C404.7183,324.0415,328.6997,266.1499,292.4355,266.1499L292.4355,266.1499z"
				/>
		</g>
		<g>
			<path fill="#FFFFFF" d="M570.3174,773.2148L570.3174,773.2148c-32.5488,0-71.46-28.6025-98.3648-52.582
				c-2.3672-2.1035-3.6054-5.1943-3.3476-8.3506c0.2514-3.1562,1.9721-6.0058,4.6465-7.7148
				c32.7895-20.8447,69.646-54.0069,106.5561-95.9151c2.3672-2.6748,5.9834-3.9453,9.5127-3.2226
				c3.5068,0.6797,6.3994,3.167,7.5947,6.5547c7.0684,20.0224,15.419,54.5761,15.7705,56.0449
				c0.0879,0.3945,0.1641,0.7988,0.2198,1.2061l4.4492,38.4218c0.0869,0.8438,0.0869,1.6992-0.0332,2.543
				c-1.4805,10.7617-7.5283,46.6426-23.0586,56.4609C587.4131,771.002,579.3477,773.2148,570.3174,773.2148L570.3174,773.2148z
				 M495.3232,714.124c30.1924,25.1612,56.5606,38.8828,74.9942,38.8828l0,0c5.2158,0,9.5127-1.1064,13.1279-3.3975
				c4.5156-2.8486,10.9268-22.1485,13.6895-40.9219l-4.2314-36.5166c-0.8214-3.3965-5.1396-20.8877-9.8193-36.9531
				C553.001,667.876,523.0605,694.791,495.3232,714.124L495.3232,714.124z"/>
		</g>
	</g>
</g>
</svg>
